JUST TEENS PORN-BOY FCUK BLONDE-SILVERDUST{HKRG} 
http://img3.immage.de/120302image50257343.jpg 
http://img2.immage.de/120380bimage50259796.jpg
[img]http://img3.immage.de/120302image50257343.jpg[/img]

[img]http://img2.immage.de/120380bimage50259796.jpg[/img]


 
http://www.leetleech.org/images/70164352431103585394.jpg
    	http://www.leetleech.org/images/92421151284823364271.png
    	http://www.leetleech.org/images/40422585559010343883.png
    	http://www.leetleech.org/images/47227864482570885961.png
Format                           : Windows Media
File size                        : 661 MiB
Duration                         : 29mn 26s
Overall bit rate mode            : Variable
Overall bit rate                 : 3 138 Kbps
Maximum Overall bit rate         : 6 154 Kbps
Encoded date                     : UTC 2008-05-25 08:02:19.567

Video
ID                               : 2
Format                           : VC-1
Format profile                   : MP@ML
Codec ID                         : WMV3
Codec ID/Info                    : Windows Media Video 9
Codec ID/Hint                    : WMV3
Description of the codec         : Windows Media Video 9 - Professional
Duration                         : 29mn 26s
Bit rate mode                    : Variable
Bit rate                         : 3 000 Kbps
Width                            : 640 pixels
Height                           : 480 pixels
Display aspect ratio             : 4:3
Frame rate                       : 25.000 fps
Bit depth                        : 8 bits
Scan type                        : Progressive
Compression mode                 : Lossy
Bits/(Pixel*Frame)               : 0.391
Stream size                      : 632 MiB (96%)

Audio
ID                               : 1
Format                           : WMA
Format version                   : Version 2
Codec ID                         : 161
Codec ID/Info                    : Windows Media Audio
Description of the codec         : Windows Media Audio 9.2 - 127 kbps, 48 kHz, stereo Low Delay 2-pass CBR
Duration                         : 29mn 26s
Bit rate mode                    : Constant
Bit rate                         : 127 Kbps
Channel(s)                       : 2 channels
Sampling rate                    : 48.0 KHz
Bit depth                        : 16 bits
Stream size                      : 26.7 MiB (4%)

NJOI